<svg xmlns="http://www.w3.org/2000/svg" width="140" height="37" fill="none"><g fill="#0F0F0F" clip-path="url(#a)"><path d="M18.114 15.095a3.7 3.7 0 0 0-1.456.25c-.462.18-.882.452-1.232.798q-1.059 1.047-1.059 2.69t1.058 2.7a3.63 3.63 0 0 0 2.687 1.048c.5.015.998-.07 1.463-.25a3.7 3.7 0 0 0 1.24-.797q1.07-1.046 1.07-2.7t-1.07-2.7a3.7 3.7 0 0 0-1.241-.792 3.7 3.7 0 0 0-1.46-.247"/><path d="M18.607 7.133c-2.369 0-4.684.686-6.653 1.972a11.76 11.76 0 0 0-4.41 5.25 11.45 11.45 0 0 0-.681 6.76 11.6 11.6 0 0 0 3.277 5.992 12.06 12.06 0 0 0 6.13 3.201c2.323.452 4.73.22 6.919-.665a11.9 11.9 0 0 0 5.373-4.31 11.5 11.5 0 0 0 2.018-6.5 11.58 11.58 0 0 0-3.511-8.269 12.13 12.13 0 0 0-8.462-3.43Zm6.782 18.33h-3.5v-1.565q-1.571 1.938-4.42 1.936-2.715 0-4.656-2.03-1.941-2.028-1.943-4.97 0-2.944 1.94-4.972 1.94-2.03 4.654-2.029 2.85 0 4.422 1.935v-1.564h3.5z"/><path d="M37.026 18.833c0-1.337-1.214-2.52-1.505-3.78-.3-1.292.26-2.88-.315-4.039-.575-1.16-2.21-1.739-3.038-2.758s-1.037-2.68-2.078-3.497-2.745-.632-3.957-1.202c-1.212-.571-2.107-1.98-3.428-2.276-1.29-.284-2.732.602-4.1.602-1.369 0-2.82-.886-4.1-.602-1.322.294-2.235 1.712-3.429 2.276s-2.916.39-3.957 1.202-1.243 2.482-2.078 3.505-2.452 1.57-3.037 2.757c-.586 1.188-.015 2.747-.315 4.032-.291 1.26-1.505 2.443-1.505 3.78 0 1.338 1.214 2.52 1.505 3.78.3 1.293-.26 2.88.315 4.04.574 1.159 2.21 1.738 3.037 2.757s1.032 2.687 2.078 3.505c1.046.817 2.745.631 3.957 1.202 1.212.57 2.107 1.98 3.428 2.275 1.29.285 2.732-.601 4.1-.601 1.37 0 2.82.886 4.101.601 1.321-.293 2.235-1.713 3.428-2.275s2.916-.39 3.957-1.202 1.244-2.483 2.078-3.505 2.452-1.573 3.038-2.758c.585-1.184.014-2.746.315-4.039.29-1.26 1.505-2.442 1.505-3.78m-18.421 12.42c-2.514 0-4.972-.728-7.062-2.093a12.5 12.5 0 0 1-4.681-5.574 12.16 12.16 0 0 1-.724-7.176 12.34 12.34 0 0 1 3.479-6.36 12.8 12.8 0 0 1 6.508-3.398 13 13 0 0 1 7.344.707 12.65 12.65 0 0 1 5.704 4.574 12.2 12.2 0 0 1 2.142 6.9 12.3 12.3 0 0 1-3.726 8.779 12.88 12.88 0 0 1-8.984 3.641m65.405-20.54q2.031 0 3.617.838 1.587.805 2.507 2.449.92 1.642.92 4v10.013H88.2v-9.61q0-2.543-1.301-3.876-1.269-1.364-3.459-1.364-2.251 0-3.585 1.426-1.332 1.395-1.332 4.061v9.363h-2.856v-9.61q0-2.543-1.3-3.876-1.27-1.364-3.46-1.364-2.252 0-3.585 1.426-1.332 1.395-1.332 4.061v9.363h-2.887v-16.99h2.887v2.45a5.7 5.7 0 0 1 2.284-2.046q1.46-.714 3.205-.714 2.19 0 3.87.962 1.682.96 2.507 2.82a5.6 5.6 0 0 1 2.412-2.79q1.68-.991 3.744-.992Zm32.303 3.07a5.5 5.5 0 0 1 2.158-2.263q1.427-.807 3.458-.807v2.915h-.762q-4.854 0-4.854 5.146v9.24h-2.887v-16.99h2.887z"/><path fill-rule="evenodd" d="M122.277 19.457q0-2.605 1.079-4.558 1.079-1.984 2.951-3.07 1.904-1.084 4.22-1.084 2.285 0 3.966.96 1.681.962 2.506 2.419v-3.1h2.919v16.99h-2.919V24.85q-.856 1.488-2.57 2.48-1.681.961-3.934.961-2.316 0-4.188-1.116-1.872-1.115-2.951-3.131t-1.079-4.588Zm14.722.03q0-1.92-.793-3.348-.793-1.425-2.157-2.17-1.333-.775-2.951-.775c-1.618 0-2.063.248-2.951.744q-1.332.745-2.126 2.17t-.793 3.349q0 1.952.793 3.41.794 1.425 2.126 2.201 1.332.744 2.951.744c1.619 0 2.062-.248 2.951-.744a5.6 5.6 0 0 0 2.157-2.201q.793-1.458.793-3.38m-43.116-4.588q-1.078 1.953-1.078 4.558 0 2.573 1.078 4.588 1.08 2.015 2.951 3.131 1.872 1.116 4.188 1.116 2.253 0 3.935-.96 1.713-.993 2.57-2.48v3.161h2.919v-16.99h-2.919v3.101q-.825-1.457-2.507-2.418-1.681-.961-3.966-.961-2.315 0-4.22 1.085-1.872 1.085-2.95 3.069Zm12.85 1.24q.794 1.426.794 3.349 0 1.92-.794 3.379a5.6 5.6 0 0 1-2.157 2.201q-1.333.744-2.951.744c-1.618 0-2.062-.248-2.95-.744q-1.334-.775-2.126-2.201-.794-1.457-.794-3.41 0-1.923.794-3.349.793-1.425 2.125-2.17 1.333-.744 2.951-.744c1.618 0 2.062.258 2.951.775q1.364.745 2.157 2.17m-63.17-1.24q-1.079 1.953-1.079 4.558 0 2.573 1.08 4.588 1.077 2.015 2.95 3.131 1.872 1.116 4.188 1.116 2.253 0 3.934-.96 1.715-.993 2.57-2.48v3.161h2.92v-16.99h-2.92v3.101q-.825-1.457-2.506-2.418t-3.966-.961q-2.316 0-4.22 1.085-1.872 1.085-2.95 3.069Zm12.85 1.24q.793 1.426.793 3.349 0 1.92-.793 3.379a5.6 5.6 0 0 1-2.157 2.201q-1.333.744-2.951.744c-1.618 0-2.063-.248-2.95-.744q-1.334-.775-2.127-2.201-.792-1.457-.793-3.41 0-1.923.793-3.349.794-1.425 2.126-2.17 1.333-.744 2.95-.744 1.62 0 2.952.775 1.364.745 2.157 2.17" clip-rule="evenodd"/></g><defs><clipPath id="a"><path fill="#fff" d="M0 .833h140v36H0z"/></clipPath></defs></svg>